<svg xmlns="http://www.w3.org/2000/svg" version="1.1" height="200px" width="400px"> <g>
  <g>
    <g fill="#7eba42">
      <path x="0" y="0" d="M20,112.21516L20,79.47852L25.41909,79.47852L25.41909,112.21516z M30.79376,96.31324L42.16497,112.21516L35.99076,112.21516L27.24026,99.33372L27.24026,92.84858L35.19122,79.47852L41.2766,79.47852L30.79376,96.31324z"></path>
      <path x="0" y="0" d="M54.15804,87.16297L54.73549,89.69484L54.73549,112.21516L49.36081,112.21516L49.36081,87.16297z M68.0167,89.91694c0.50341,0.50341 0.89578,1.08826 1.1771,1.75454c0.28132,0.66628 0.48861,1.36218 0.62186,2.08768c0.13326,0.72551 0.21469,1.45842 0.2443,2.19873c0.02961,0.74031 0.04442,1.46582 0.04442,2.17652L70.10438,111.32679L70.10438,112.21516L64.68529,112.21516L64.68529,98.5786c0,-1.00683 -0.04442,-1.96923 -0.13326,-2.88722c-0.08884,-0.91799 -0.29613,-1.73233 -0.62186,-2.44303c-0.32574,-0.7107 -0.76993,-1.26594 -1.33256,-1.6657c-0.56264,-0.39977 -1.34737,-0.59965 -2.3542,-0.59965c-0.41458,0 -0.96981,0.06663 -1.6657,0.19988c-0.69589,0.13326 -1.36958,0.34795 -2.02105,0.64407L56.55666,88.4067c0.79954,-0.41458 1.6657,-0.76993 2.5985,-1.06605c0.93279,-0.29613 1.84338,-0.44419 2.73175,-0.44419c1.33256,0 2.45784,0.27392 3.37583,0.82175c0.91799,0.54783 1.83598,1.28074 2.75396,2.19873z"></path>
      <path x="0" y="0" d="M89.2933,87.02972c1.62869,0.08884 3.10931,0.4812 4.44188,1.1771c1.33256,0.69589 2.45044,1.61388 3.35362,2.75396c0.90318,1.14008 1.60648,2.46524 2.10989,3.97548c0.50341,1.51024 0.75512,3.12412 0.75512,4.84165c0,1.71753 -0.25911,3.32401 -0.77733,4.81944c-0.51822,1.49543 -1.23632,2.79838 -2.15431,3.90885c-0.91799,1.11047 -2.04326,2.00625 -3.37583,2.68734c-1.33256,0.68109 -2.78358,1.08086 -4.35304,1.19931L89.2933,108.12864c1.48063,-0.32574 2.68734,-1.25853 3.62013,-2.79838c0.93279,-1.53985 1.39919,-3.39063 1.39919,-5.55235c0,-1.09566 -0.11105,-2.1247 -0.33314,-3.08711c-0.22209,-0.96241 -0.55523,-1.82857 -0.99942,-2.5985c-0.44419,-0.76993 -0.97721,-1.40659 -1.59908,-1.91001c-0.62186,-0.50341 -1.31776,-0.82915 -2.08768,-0.97721z M76.90046,99.68907c0,-1.71753 0.25171,-3.3166 0.75512,-4.79723c0.50341,-1.48063 1.22152,-2.77617 2.15431,-3.88664c0.93279,-1.11047 2.05067,-2.00625 3.35362,-2.68734c1.30295,-0.68109 2.73916,-1.09566 4.30862,-1.24373L87.47213,91.20508c-1.48063,0.32574 -2.66513,1.25853 -3.5535,2.79838c-0.88838,1.53985 -1.33256,3.39063 -1.33256,5.55235c0,1.09566 0.11105,2.1321 0.33314,3.10931c0.22209,0.97721 0.54043,1.85078 0.955,2.62071c0.41458,0.76993 0.92539,1.40659 1.53245,1.91001c0.60706,0.50341 1.29555,0.81434 2.06547,0.93279L87.47213,112.39284c-1.62869,-0.11845 -3.09451,-0.52562 -4.39746,-1.22152c-1.30295,-0.69589 -2.41342,-1.60648 -3.33141,-2.73175c-0.91799,-1.12528 -1.62129,-2.44303 -2.10989,-3.95327c-0.48861,-1.51024 -0.73291,-3.10931 -0.73291,-4.79723z"></path>
      <path x="0" y="0" d="M135.57767,87.16297L141.39653,87.16297L134.33394,112.39284L127.40461,112.39284L124.73948,102.04326L124.73948,87.16297L126.69391,87.16297L130.91369,108.0398z M116.21108,108.0398L120.87505,87.16297L122.91831,87.16297L122.91831,100.7107L119.72016,112.39284L112.74641,112.39284L106.30569,87.16297L112.08013,87.16297L116.21108,108.0398z"></path>
      <path d="M153.65611,104.57513c0,1.00683 0.13326,1.79896 0.39977,2.3764c0.26651,0.57744 0.63667,1.00683 1.11047,1.28814c0.4738,0.28132 1.01423,0.4664 1.62129,0.55523c0.60706,0.08884 1.26594,0.13326 1.97664,0.13326L158.76427,112.21516c-0.38496,0.05923 -0.78473,0.10364 -1.19931,0.13326c-0.32574,0.02961 -0.7107,0.05182 -1.15489,0.06663c-0.44419,0.01481 -0.88838,0.02221 -1.33256,0.02221c-0.44419,0 -0.88838,-0.01481 -1.33256,-0.04442c-0.44419,-0.02961 -0.84396,-0.07403 -1.19931,-0.13326c-1.00683,-0.20729 -1.79156,-0.65148 -2.3542,-1.33256c-0.56264,-0.68109 -0.99202,-1.44361 -1.28814,-2.28757c-0.29613,-0.84396 -0.4812,-1.6657 -0.55523,-2.46524c-0.07403,-0.79954 -0.11105,-1.4214 -0.11105,-1.86559L148.23702,103.7756L148.23702,77.70177L153.65611,77.70177L153.65611,104.57513z"></path>
      <path x="0" y="0" d="M176.08759,86.94088c1.59908,0.14806 3.04269,0.57744 4.33083,1.28814c1.28814,0.7107 2.39121,1.62869 3.3092,2.75396c0.91799,1.12528 1.62129,2.41342 2.10989,3.86443c0.48861,1.45101 0.73291,2.96125 0.73291,4.53072c0,0.7107 -0.04442,1.4214 -0.13326,2.1321L171.20153,101.51024L171.20153,97.60139L181.46227,97.60139c0,-0.76993 -0.12585,-1.51024 -0.37756,-2.22094c-0.25171,-0.7107 -0.62186,-1.36958 -1.11047,-1.97664c-0.48861,-0.60706 -1.05865,-1.11787 -1.71012,-1.53245c-0.65148,-0.41458 -1.37698,-0.66628 -2.17652,-0.75512z M175.90992,108.0398c0.32574,0 0.73291,-0.03702 1.22152,-0.11105c0.48861,-0.07403 1.00683,-0.20729 1.55466,-0.39977c0.54783,-0.19248 1.09566,-0.43678 1.64349,-0.73291c0.54783,-0.29613 1.02904,-0.65148 1.44361,-1.06605L183.72762,108.70608c-0.97721,1.21411 -2.1173,2.1321 -3.42025,2.75396c-1.30295,0.62186 -2.96125,0.93279 -4.9749,0.93279c-1.62869,0 -3.15373,-0.33314 -4.57513,-0.99942c-1.4214,-0.66628 -2.63551,-1.57687 -3.64234,-2.73175c-1.00683,-1.15489 -1.80636,-2.50226 -2.39861,-4.04211c-0.59225,-1.53985 -0.88838,-3.19815 -0.88838,-4.9749c0,-1.68791 0.27392,-3.28699 0.82175,-4.79723c0.54783,-1.51024 1.29555,-2.8354 2.24315,-3.97548c0.9476,-1.14008 2.05067,-2.06547 3.3092,-2.77617c1.25853,-0.7107 2.6133,-1.11047 4.06432,-1.19931L174.26642,91.16066c-1.09566,0.20729 -1.99885,0.65148 -2.70955,1.33256c-0.7107,0.68109 -1.26594,1.45842 -1.6657,2.33199c-0.39977,0.87357 -0.68109,1.76935 -0.84396,2.68734c-0.16287,0.91799 -0.2443,1.70272 -0.2443,2.3542c0,1.15489 0.14066,2.22834 0.42198,3.22036c0.28132,0.99202 0.7181,1.85078 1.31035,2.57629c0.59225,0.72551 1.32516,1.30295 2.19873,1.73233c0.87357,0.42938 1.93222,0.64407 3.17594,0.64407z"></path>
      <path x="0" y="0" d="M214.82077,77.70177L214.82077,112.21516L209.71261,112.21516L209.40168,109.23911L209.40168,77.70177z M192.34487,99.33372c0,-2.30978 0.31833,-4.2494 0.955,-5.81886c0.63667,-1.56946 1.45842,-2.8428 2.46524,-3.82002c1.00683,-0.97721 2.1247,-1.68051 3.35362,-2.10989c1.22892,-0.42938 2.43563,-0.64407 3.62013,-0.64407c0.91799,0 1.79156,0.10364 2.62071,0.31093c0.82915,0.20729 1.56946,0.50341 2.22094,0.88838L207.58051,92.84858c-0.50341,-0.53303 -1.06605,-0.96241 -1.68791,-1.28814c-0.62186,-0.32574 -1.31776,-0.48861 -2.08768,-0.48861c-0.91799,0 -1.73233,0.2295 -2.44303,0.68849c-0.7107,0.45899 -1.31035,1.08826 -1.79896,1.8878c-0.48861,0.79954 -0.86617,1.71753 -1.13268,2.75396c-0.26651,1.03644 -0.39977,2.14691 -0.39977,3.33141c0,1.1845 0.14806,2.28757 0.44419,3.3092c0.29613,1.02163 0.69589,1.91741 1.19931,2.68734c0.50341,0.76993 1.11787,1.37698 1.84338,1.82117c0.72551,0.44419 1.51764,0.66628 2.3764,0.66628c1.45101,0 2.67993,-0.57744 3.68676,-1.73233L207.58051,111.1047c-0.7107,0.38496 -1.53245,0.7033 -2.46524,0.955c-0.93279,0.25171 -1.91741,0.37756 -2.95385,0.37756c-1.1845,0 -2.34679,-0.21469 -3.48687,-0.64407c-1.14008,-0.42938 -2.15431,-1.13268 -3.04269,-2.10989c-1.12528,-1.27334 -1.95443,-2.85021 -2.48745,-4.7306c-0.53303,-1.8804 -0.79954,-3.75339 -0.79954,-5.61898z"></path>
      <path x="0" y="0" d="M231.52223,112.43726c-1.6583,0 -3.10931,-0.36275 -4.35304,-1.08826c-1.24373,-0.72551 -2.28016,-1.69532 -3.10931,-2.90943c-0.82915,-1.21411 -1.43621,-2.6059 -1.82117,-4.17537c-0.38496,-1.56946 -0.57744,-3.21296 -0.57744,-4.93048c0,-2.30978 0.31833,-4.2494 0.955,-5.81886c0.63667,-1.56946 1.45101,-2.85021 2.44303,-3.84222c0.99202,-0.99202 2.10249,-1.69532 3.33141,-2.10989c1.22892,-0.41458 2.43563,-0.62186 3.62013,-0.62186c0.91799,0 1.79156,0.10364 2.62071,0.31093c0.82915,0.20729 1.58427,0.50341 2.26536,0.88838L236.8969,92.84858c-0.4738,-0.53303 -1.02904,-0.96241 -1.6657,-1.28814c-0.63667,-0.32574 -1.32516,-0.48861 -2.06547,-0.48861c-0.88838,0 -1.69532,0.2295 -2.42082,0.68849c-0.72551,0.45899 -1.33997,1.07345 -1.84338,1.84338c-0.50341,0.76993 -0.88838,1.67311 -1.15489,2.70955c-0.26651,1.03644 -0.39977,2.1321 -0.39977,3.28699c0,1.1845 0.14066,2.30237 0.42198,3.35362c0.28132,1.05124 0.68109,1.96183 1.19931,2.73175c0.51822,0.76993 1.14008,1.38439 1.86559,1.84338c0.72551,0.45899 1.53245,0.68849 2.42082,0.68849c0.74031,0 1.40659,-0.15547 1.99885,-0.4664c0.59225,-0.31093 1.14008,-0.7181 1.64349,-1.22152L236.8969,111.14911c-0.7107,0.35535 -1.52504,0.65888 -2.44303,0.91058c-0.91799,0.25171 -1.8952,0.37756 -2.93164,0.37756z M244.09275,87.16297L244.04833,112.21516c-0.11845,1.80636 -0.4812,3.34621 -1.08826,4.61955c-0.60706,1.27334 -1.38439,2.32458 -2.33199,3.15373c-0.9476,0.82915 -2.04326,1.4214 -3.28699,1.77675c-1.24373,0.35535 -2.57629,0.53303 -3.99769,0.53303c-1.6583,0 -3.29439,-0.28872 -4.90828,-0.86617c-1.61388,-0.57744 -2.95385,-1.54725 -4.0199,-2.90943L227.52454,115.45774c0.29613,0.50341 0.67368,0.91799 1.13268,1.24373c0.45899,0.32574 0.93279,0.57744 1.4214,0.75512c0.48861,0.17768 0.97721,0.30353 1.46582,0.37756c0.48861,0.07403 0.92539,0.11105 1.31035,0.11105c1.83598,0 3.27218,-0.53303 4.30862,-1.59908c1.03644,-1.06605 1.55466,-2.88722 1.55466,-5.46351L238.71807,89.69484L239.29552,87.16297L244.09275,87.16297z"></path>
      <path x="0" y="0" d="M264.39213,86.94088c1.59908,0.14806 3.04269,0.57744 4.33083,1.28814c1.28814,0.7107 2.39121,1.62869 3.3092,2.75396c0.91799,1.12528 1.62129,2.41342 2.10989,3.86443c0.48861,1.45101 0.73291,2.96125 0.73291,4.53072c0,0.7107 -0.04442,1.4214 -0.13326,2.1321L259.50606,101.51024L259.50606,97.60139L269.7668,97.60139c0,-0.76993 -0.12585,-1.51024 -0.37756,-2.22094c-0.25171,-0.7107 -0.62186,-1.36958 -1.11047,-1.97664c-0.48861,-0.60706 -1.05865,-1.11787 -1.71012,-1.53245c-0.65148,-0.41458 -1.37698,-0.66628 -2.17652,-0.75512z M264.21445,108.0398c0.32574,0 0.73291,-0.03702 1.22152,-0.11105c0.48861,-0.07403 1.00683,-0.20729 1.55466,-0.39977c0.54783,-0.19248 1.09566,-0.43678 1.64349,-0.73291c0.54783,-0.29613 1.02904,-0.65148 1.44361,-1.06605L272.03216,108.70608c-0.97721,1.21411 -2.1173,2.1321 -3.42025,2.75396c-1.30295,0.62186 -2.96125,0.93279 -4.9749,0.93279c-1.62869,0 -3.15373,-0.33314 -4.57513,-0.99942c-1.4214,-0.66628 -2.63551,-1.57687 -3.64234,-2.73175c-1.00683,-1.15489 -1.80636,-2.50226 -2.39861,-4.04211c-0.59225,-1.53985 -0.88838,-3.19815 -0.88838,-4.9749c0,-1.68791 0.27392,-3.28699 0.82175,-4.79723c0.54783,-1.51024 1.29555,-2.8354 2.24315,-3.97548c0.9476,-1.14008 2.05067,-2.06547 3.3092,-2.77617c1.25853,-0.7107 2.6133,-1.11047 4.06432,-1.19931L262.57096,91.16066c-1.09566,0.20729 -1.99885,0.65148 -2.70955,1.33256c-0.7107,0.68109 -1.26594,1.45842 -1.6657,2.33199c-0.39977,0.87357 -0.68109,1.76935 -0.84396,2.68734c-0.16287,0.91799 -0.2443,1.70272 -0.2443,2.3542c0,1.15489 0.14066,2.22834 0.42198,3.22036c0.28132,0.99202 0.7181,1.85078 1.31035,2.57629c0.59225,0.72551 1.32516,1.30295 2.19873,1.73233c0.87357,0.42938 1.93222,0.64407 3.17594,0.64407z"></path>
    </g>
    <g fill="#000000">
      <path x="0" y="0" d="M293.51663,94.98068c0.68109,0.08884 1.40659,0.31093 2.17652,0.66628c0.76993,0.35535 1.48803,0.85876 2.15431,1.51024c0.66628,0.65148 1.22152,1.44361 1.6657,2.3764c0.44419,0.93279 0.66628,2.00625 0.66628,3.22036c0,1.48063 -0.22209,2.75396 -0.66628,3.82002c-0.44419,1.06605 -0.99942,1.94702 -1.6657,2.64292c-0.66628,0.69589 -1.39179,1.24373 -2.17652,1.64349c-0.78473,0.39977 -1.53985,0.7033 -2.26536,0.91058c-0.72551,0.20729 -1.36958,0.33314 -1.93222,0.37756c-0.56264,0.04442 -0.93279,0.06663 -1.11047,0.06663L285.21032,112.21516L285.21032,108.30631L290.05197,108.30631c1.56946,0 2.79838,-0.50341 3.68676,-1.51024c0.88838,-1.00683 1.33256,-2.3542 1.33256,-4.04211c0,-1.59908 -0.45899,-2.94645 -1.37698,-4.04211c-0.91799,-1.09566 -2.26536,-1.64349 -4.04211,-1.64349L285.21032,97.06836L285.21032,93.47044L287.34242,93.47044c0.65148,0 1.31776,-0.01481 1.99885,-0.04442c0.68109,-0.02961 1.31776,-0.19248 1.91001,-0.48861c0.59225,-0.29613 1.07345,-0.79954 1.44361,-1.51024c0.37016,-0.7107 0.55523,-1.73233 0.55523,-3.0649c0,-0.53303 -0.07403,-1.08826 -0.22209,-1.6657c-0.14806,-0.57744 -0.44419,-1.10307 -0.88838,-1.57687c-0.44419,-0.4738 -1.08086,-0.85876 -1.91001,-1.15489c-0.82915,-0.29613 -1.92481,-0.44419 -3.28699,-0.44419L285.21032,83.52063L285.21032,79.47852L287.47568,79.47852c1.39179,0 2.73916,0.16287 4.04211,0.48861c1.30295,0.32574 2.45784,0.84396 3.46466,1.55466c1.00683,0.7107 1.80636,1.63609 2.39861,2.77617c0.59225,1.14008 0.88838,2.49485 0.88838,4.06432c0,0.91799 -0.14806,1.75454 -0.44419,2.50966c-0.29613,0.75512 -0.66628,1.414 -1.11047,1.97664c-0.44419,0.56264 -0.955,1.02904 -1.53245,1.39919c-0.57744,0.37016 -1.13268,0.61446 -1.6657,0.73291z M278.0589,79.47852L283.38915,79.47852L283.38915,112.21516L278.0589,112.21516L278.0589,79.47852z"></path>
      <path x="0" y="0" d="M311.77275,104.66397c0,1.33256 0.27392,2.32458 0.82175,2.97606c0.54783,0.65148 1.33997,1.03644 2.3764,1.15489L314.97091,112.39284c-0.11845,0.02961 -0.31093,0.04442 -0.57744,0.04442c-1.00683,0 -1.97664,-0.13326 -2.90943,-0.39977c-0.93279,-0.26651 -1.75454,-0.69589 -2.46524,-1.28814c-0.7107,-0.59225 -1.26594,-1.37698 -1.6657,-2.3542c-0.39977,-0.97721 -0.59965,-2.17652 -0.59965,-3.59792c0,-1.36218 0.28872,-2.53927 0.86617,-3.53129c0.57744,-0.99202 1.31776,-1.80636 2.22094,-2.44303c0.90318,-0.63667 1.93222,-1.11047 3.08711,-1.4214c1.15489,-0.31093 2.32458,-0.4664 3.50908,-0.4664L318.39115,96.9351L318.39115,100.08884L317.41394,100.08884c-0.59225,0 -1.21411,0.05923 -1.86559,0.17768c-0.65148,0.11845 -1.25853,0.34054 -1.82117,0.66628c-0.56264,0.32574 -1.02904,0.79213 -1.39919,1.39919c-0.37016,0.60706 -0.55523,1.38439 -0.55523,2.33199z M325.58699,104.79723c0,0.2369 0.01481,0.58485 0.04442,1.04384c0.02961,0.45899 0.08884,0.92539 0.17768,1.39919c0.08884,0.4738 0.2295,0.90318 0.42198,1.28814c0.19248,0.38496 0.45159,0.63667 0.77733,0.75512L325.58699,112.25958c-0.38496,0 -0.79213,-0.08884 -1.22152,-0.26651c-0.42938,-0.17768 -0.84396,-0.42938 -1.24373,-0.75512c-0.39977,-0.32574 -0.74031,-0.68849 -1.02163,-1.08826c-0.28132,-0.39977 -0.49601,-0.83655 -0.64407,-1.31035c-0.29613,0.74031 -0.88097,1.39919 -1.75454,1.97664c-0.87357,0.57744 -1.84338,0.99942 -2.90943,1.26594L316.79208,108.70608c0.7107,-0.14806 1.35477,-0.43678 1.93222,-0.86617c0.57744,-0.42938 1.07345,-0.9402 1.48803,-1.53245L320.21232,96.9351c0,-1.45101 -0.07403,-2.6059 -0.22209,-3.46466c-0.14806,-0.85876 -0.39977,-1.48803 -0.75512,-1.8878c-0.35535,-0.39977 -0.79213,-0.65148 -1.31035,-0.75512c-0.51822,-0.10364 -1.13268,-0.15547 -1.84338,-0.15547c-0.65148,0 -1.26594,0.08143 -1.84338,0.2443c-0.57744,0.16287 -1.11047,0.35535 -1.59908,0.57744c-0.48861,0.22209 -0.91799,0.4664 -1.28814,0.73291c-0.37016,0.26651 -0.64407,0.4738 -0.82175,0.62186L308.53018,89.78368c0.29613,-0.32574 0.74031,-0.65888 1.33256,-0.99942c0.59225,-0.34054 1.27334,-0.64407 2.04326,-0.91058c0.76993,-0.26651 1.60648,-0.4812 2.50966,-0.64407c0.90318,-0.16287 1.84338,-0.2443 2.82059,-0.2443c0.88838,0 1.75454,0.08884 2.5985,0.26651c0.84396,0.17768 1.61388,0.4738 2.30978,0.88838c0.69589,0.41458 1.30295,0.96981 1.82117,1.6657c0.51822,0.69589 0.88097,1.56206 1.08826,2.5985c0.20729,1.03644 0.34795,2.08028 0.42198,3.13152c0.07403,1.05124 0.11105,2.09509 0.11105,3.13152L325.58699,104.44188L325.58699,104.79723z"></path>
      <path x="0" y="0" d="M333.49354,94.3144c0,-1.12528 0.20729,-2.1395 0.62186,-3.04269c0.41458,-0.90318 0.99202,-1.67311 1.73233,-2.30978c0.74031,-0.63667 1.57687,-1.14008 2.50966,-1.51024c0.93279,-0.37016 1.9026,-0.59965 2.90943,-0.68849L341.26682,91.20508c-0.76993,0.14806 -1.36958,0.45899 -1.79896,0.93279c-0.42938,0.4738 -0.64407,1.14008 -0.64407,1.99885c0,0.7107 0.2295,1.28074 0.68849,1.71012c0.45899,0.42938 1.04384,0.80694 1.75454,1.13268L341.26682,101.73233c-0.50341,-0.14806 -1.01423,-0.31833 -1.53245,-0.51082c-0.51822,-0.19248 -1.02904,-0.40717 -1.53245,-0.64407c-1.56946,-0.82915 -2.74656,-1.70272 -3.53129,-2.62071c-0.78473,-0.91799 -1.1771,-2.1321 -1.1771,-3.64234z M348.32941,92.44881c-0.79954,-0.41458 -1.6509,-0.72551 -2.55408,-0.93279c-0.90318,-0.20729 -1.79896,-0.34054 -2.68734,-0.39977L343.08799,86.71878c1.33256,0.05923 2.56148,0.2443 3.68676,0.55523c1.12528,0.31093 2.22094,0.80694 3.28699,1.48803z M335.84773,106.6184c0.59225,0.41458 1.29555,0.79954 2.10989,1.15489c0.81434,0.35535 1.84338,0.53303 3.08711,0.53303L341.26682,108.30631L341.26682,112.43726c-0.74031,0 -1.4214,-0.02221 -2.04326,-0.06663c-0.62186,-0.04442 -1.23632,-0.14806 -1.84338,-0.31093c-0.60706,-0.16287 -1.22152,-0.39237 -1.84338,-0.68849c-0.62186,-0.29613 -1.27334,-0.68109 -1.95443,-1.15489z M343.08799,97.69022c0.88838,0.29613 1.79156,0.62186 2.70955,0.97721c0.91799,0.35535 1.75454,0.79954 2.50966,1.33256c0.75512,0.53303 1.37698,1.1919 1.86559,1.97664c0.48861,0.78473 0.73291,1.76935 0.73291,2.95385c0,1.15489 -0.20729,2.16171 -0.62186,3.02048c-0.41458,0.85876 -0.96981,1.59908 -1.6657,2.22094c-0.69589,0.62186 -1.51764,1.11047 -2.46524,1.46582c-0.9476,0.35535 -1.96923,0.59225 -3.0649,0.7107L343.08799,108.12864c1.00683,-0.17768 1.78415,-0.49601 2.33199,-0.955c0.54783,-0.45899 0.82175,-1.07345 0.82175,-1.84338c0,-0.76993 -0.30353,-1.36958 -0.91058,-1.79896c-0.60706,-0.42938 -1.35477,-0.80694 -2.24315,-1.13268L343.08799,97.69022z"></path>
      <path x="0" y="0" d="M369.51717,86.94088c1.59908,0.14806 3.04269,0.57744 4.33083,1.28814c1.28814,0.7107 2.39121,1.62869 3.3092,2.75396c0.91799,1.12528 1.62129,2.41342 2.10989,3.86443c0.48861,1.45101 0.73291,2.96125 0.73291,4.53072c0,0.7107 -0.04442,1.4214 -0.13326,2.1321L364.6311,101.51024L364.6311,97.60139L374.89184,97.60139c0,-0.76993 -0.12585,-1.51024 -0.37756,-2.22094c-0.25171,-0.7107 -0.62186,-1.36958 -1.11047,-1.97664c-0.48861,-0.60706 -1.05865,-1.11787 -1.71012,-1.53245c-0.65148,-0.41458 -1.37698,-0.66628 -2.17652,-0.75512z M369.33949,108.0398c0.32574,0 0.73291,-0.03702 1.22152,-0.11105c0.48861,-0.07403 1.00683,-0.20729 1.55466,-0.39977c0.54783,-0.19248 1.09566,-0.43678 1.64349,-0.73291c0.54783,-0.29613 1.02904,-0.65148 1.44361,-1.06605L377.1572,108.70608c-0.97721,1.21411 -2.1173,2.1321 -3.42025,2.75396c-1.30295,0.62186 -2.96125,0.93279 -4.9749,0.93279c-1.62869,0 -3.15373,-0.33314 -4.57513,-0.99942c-1.4214,-0.66628 -2.63551,-1.57687 -3.64234,-2.73175c-1.00683,-1.15489 -1.80636,-2.50226 -2.39861,-4.04211c-0.59225,-1.53985 -0.88838,-3.19815 -0.88838,-4.9749c0,-1.68791 0.27392,-3.28699 0.82175,-4.79723c0.54783,-1.51024 1.29555,-2.8354 2.24315,-3.97548c0.9476,-1.14008 2.05067,-2.06547 3.3092,-2.77617c1.25853,-0.7107 2.6133,-1.11047 4.06432,-1.19931L367.696,91.16066c-1.09566,0.20729 -1.99885,0.65148 -2.70955,1.33256c-0.7107,0.68109 -1.26594,1.45842 -1.6657,2.33199c-0.39977,0.87357 -0.68109,1.76935 -0.84396,2.68734c-0.16287,0.91799 -0.2443,1.70272 -0.2443,2.3542c0,1.15489 0.14066,2.22834 0.42198,3.22036c0.28132,0.99202 0.7181,1.85078 1.31035,2.57629c0.59225,0.72551 1.32516,1.30295 2.19873,1.73233c0.87357,0.42938 1.93222,0.64407 3.17594,0.64407z"></path>
    </g>
    <line x1="20" y1="128.99" x2="380" y2="128.99" data-paper-data="{&quot;space&quot;:6.6894683072002845}"></line>
  </g>
  <g fill="#424242">
    <polygon points="20,128.99 20,126.82 380,126.82 380,131.16 20,131.16 20,128.99"></polygon>
  </g>
</g>
</svg>